<svg version="1.1" id="Layer_1" xmlns="http://www.w3.org/2000/svg" xmlns:xlink="http://www.w3.org/1999/xlink" x="0px" y="0px"
	 width="100%" viewBox="0 0 500 500" enable-background="new 0 0 500 500" xml:space="preserve">
<path fill="#010101" opacity="1.000000" stroke="none" 
	d="
M272.000000,501.000000 
	C181.333359,501.000000 91.166710,501.000000 1.000048,501.000000 
	C1.000032,334.333405 1.000032,167.666794 1.000016,1.000138 
	C167.666565,1.000092 334.333130,1.000092 500.999756,1.000046 
	C500.999847,167.666519 500.999847,334.333038 500.999939,500.999786 
	C424.833344,501.000000 348.666656,501.000000 272.000000,501.000000 
M76.537643,116.148300 
	C76.295288,116.350349 76.069626,116.569588 75.764214,116.970154 
	C75.764214,116.970154 75.817741,117.409012 75.817741,117.409012 
	C75.817741,117.409012 76.193436,117.133911 76.532845,116.804512 
	C76.754158,116.577820 76.953133,116.332977 77.164131,115.988342 
	C77.164131,115.988342 76.913330,115.861580 76.537643,116.148300 
M400.549103,113.092834 
	C400.293640,113.271225 400.096466,113.499855 399.386444,113.829651 
	C398.669495,114.419006 397.952545,115.008362 397.235596,115.597717 
	C397.550018,115.922073 397.864410,116.246429 398.178833,116.570786 
	C398.842834,115.708519 399.506836,114.846252 400.552551,113.717834 
	C400.787659,113.506004 400.982117,113.261803 401.211609,112.913422 
	C401.211609,112.913422 400.950714,112.870842 400.549103,113.092834 
M405.066559,367.254364 
	C405.066559,367.254364 405.170380,366.999146 405.085358,366.882782 
	C405.085358,366.882782 404.848022,366.943573 404.848022,366.943573 
	C404.848022,366.943573 404.992676,367.163055 405.066559,367.254364 
M409.997040,381.816315 
	C409.997040,381.816315 409.853271,382.056000 409.900940,382.244568 
	C410.032288,382.214691 410.163666,382.184814 410.295013,382.154907 
	C410.226379,382.053680 410.157745,381.952454 409.997040,381.816315 
M415.925232,386.720276 
	C415.925232,386.720276 415.704285,386.796936 415.704285,386.796936 
	C415.704285,386.796936 415.818176,387.006592 415.889160,387.370209 
	C416.190674,387.515503 416.492188,387.660797 416.793701,387.806122 
	C416.530762,387.478027 416.267822,387.149963 415.925232,386.720276 
M84.941475,125.748329 
	C84.941475,125.748329 84.712227,125.816376 84.712227,125.816376 
	C84.712227,125.816376 84.859062,126.027832 84.919624,126.381554 
	C85.209076,126.524139 85.498528,126.666733 85.787979,126.809319 
	C85.533081,126.494644 85.278191,126.179970 84.941475,125.748329 
M423.695465,384.024048 
	C423.652130,384.265350 423.608795,384.506653 423.565491,384.747955 
	C423.761963,384.533173 423.958466,384.318359 424.188995,384.000641 
	C424.188995,384.000641 423.889465,383.841003 423.695465,384.024048 
M411.930969,111.809906 
	C411.930969,111.809906 411.736786,111.933235 411.736786,111.933235 
	C411.736786,111.933235 411.893402,112.142776 411.961243,112.620682 
	C412.118774,113.352898 412.276276,114.085114 412.433807,114.817329 
	C412.902344,114.321556 413.370850,113.825790 413.839386,113.330017 
	C413.233765,112.856613 412.628174,112.383202 411.930969,111.809906 
M388.600616,117.972260 
	C387.631531,117.357361 386.662445,116.742462 385.220947,115.827797 
	C386.721802,121.469193 387.940796,122.151543 391.658722,119.756821 
	C390.715149,119.207542 389.895782,118.730560 388.600616,117.972260 
M432.182861,395.633667 
	C433.002075,395.531616 433.821259,395.429535 434.640472,395.327484 
	C434.455078,394.874176 434.269714,394.420898 434.084351,393.967590 
	C433.508759,394.397705 432.933167,394.827789 432.182861,395.633667 
M92.011307,130.971970 
	C92.011307,130.971970 92.036758,131.005615 92.011307,130.971970 
M396.935699,371.921661 
	C396.999054,371.927551 397.062378,371.933441 396.935699,371.921661 
M100.173676,135.903610 
	C100.327530,136.039474 100.481384,136.175339 100.635239,136.311203 
	C100.704803,136.207428 100.774376,136.103668 100.843941,135.999893 
	C100.662109,135.905731 100.480278,135.811569 100.173676,135.903610 
M425.808411,396.149963 
	C425.808411,396.149963 425.846222,396.122498 425.808411,396.149963 
M411.603943,104.420586 
	C411.603943,104.420586 411.349823,104.542419 411.349823,104.542419 
	C411.349823,104.542419 411.635925,104.528564 411.603943,104.420586 
M399.537537,373.999542 
	C399.537537,373.999542 399.491028,374.012787 399.537537,373.999542 
M404.471069,378.036865 
	C404.471069,378.036865 404.475067,378.000366 404.471069,378.036865 
M421.874756,387.504486 
	C421.874756,387.504486 422.104340,387.587097 422.104340,387.587097 
	C422.104340,387.587097 421.958527,387.401611 421.874756,387.504486 
M78.508698,120.925400 
	C78.508698,120.925400 78.580658,120.983986 78.508698,120.925400 
M416.998749,111.529167 
	C416.998749,111.529167 416.982544,111.474365 416.998749,111.529167 
M428.507874,387.541199 
	C428.507874,387.541199 428.483093,387.481293 428.507874,387.541199 
M432.410797,387.495270 
	C432.410797,387.495270 432.519684,387.434143 432.410797,387.495270 
M434.496582,389.578857 
	C434.496582,389.578857 434.442780,389.479370 434.496582,389.578857 
M411.446838,100.504204 
	C411.446838,100.504204 411.519470,100.470192 411.446838,100.504204 
M422.522827,381.485931 
	C422.522827,381.485931 422.484161,381.495636 422.522827,381.485931 
M420.494995,379.586334 
	C420.494995,379.586334 420.434082,379.477905 420.494995,379.586334 
M410.476471,102.514305 
	C410.476471,102.514305 410.515350,102.504440 410.476471,102.514305 
M74.497345,141.445999 
	C74.497345,141.445999 74.532173,141.519806 74.497345,141.445999 
M102.413528,133.508484 
	C102.413528,133.508484 102.524696,133.446640 102.413528,133.508484 
M103.579224,129.504501 
	C103.579224,129.504501 103.477356,129.560196 103.579224,129.504501 
M82.531624,123.495064 
	C82.531624,123.495064 82.481247,123.513626 82.531624,123.495064 
M80.574890,122.503151 
	C80.574890,122.503151 80.465073,122.562683 80.574890,122.503151 
M92.518318,121.483109 
	C92.518318,121.483109 92.484924,121.488037 92.518318,121.483109 
M91.594345,119.508102 
	C91.594345,119.508102 91.476250,119.577065 91.594345,119.508102 
z"/>
<path fill="#0A0A0A" opacity="1.000000" stroke="none" 
	d="
M388.838501,118.112915 
	C389.895782,118.730560 390.715149,119.207542 391.658722,119.756821 
	C387.940796,122.151543 386.721802,121.469193 385.220947,115.827797 
	C386.662445,116.742462 387.631531,117.357361 388.838501,118.112915 
z"/>
<path fill="#090909" opacity="1.000000" stroke="none" 
	d="
M432.270233,395.445801 
	C432.933167,394.827789 433.508759,394.397705 434.084351,393.967590 
	C434.269714,394.420898 434.455078,394.874176 434.640472,395.327484 
	C433.821259,395.429535 433.002075,395.531616 432.270233,395.445801 
z"/>
<path fill="#0A0A0A" opacity="1.000000" stroke="none" 
	d="
M400.170837,113.983963 
	C399.506836,114.846252 398.842834,115.708519 398.178833,116.570786 
	C397.864410,116.246429 397.550018,115.922073 397.235596,115.597717 
	C397.952545,115.008362 398.669495,114.419006 399.721832,113.859238 
	C400.057220,113.888832 400.170807,113.983940 400.170837,113.983963 
z"/>
<path fill="#0A0A0A" opacity="1.000000" stroke="none" 
	d="
M412.022552,111.909798 
	C412.628174,112.383202 413.233765,112.856613 413.839386,113.330017 
	C413.370850,113.825790 412.902344,114.321556 412.433807,114.817329 
	C412.276276,114.085114 412.118774,113.352898 411.954834,112.320831 
	C411.948425,112.020988 412.022552,111.909798 412.022552,111.909798 
z"/>
<path fill="#0A0A0A" opacity="1.000000" stroke="none" 
	d="
M92.024033,130.988800 
	C92.036758,131.005615 92.011307,130.971970 92.024033,130.988800 
z"/>
<path fill="#0B0B0B" opacity="1.000000" stroke="none" 
	d="
M397.030701,371.930481 
	C397.062378,371.933441 396.999054,371.927551 397.030701,371.930481 
z"/>
<path fill="#0A0A0A" opacity="1.000000" stroke="none" 
	d="
M100.236053,135.810516 
	C100.480278,135.811569 100.662109,135.905731 100.843941,135.999893 
	C100.774376,136.103668 100.704803,136.207428 100.635239,136.311203 
	C100.481384,136.175339 100.327530,136.039474 100.236053,135.810516 
z"/>
<path fill="#090909" opacity="1.000000" stroke="none" 
	d="
M425.827332,396.136230 
	C425.846222,396.122498 425.808411,396.149963 425.827332,396.136230 
z"/>
<path fill="#0A0A0A" opacity="1.000000" stroke="none" 
	d="
M411.619934,104.474579 
	C411.635925,104.528564 411.349823,104.542419 411.349823,104.542419 
	C411.349823,104.542419 411.603943,104.420586 411.619934,104.474579 
z"/>
<path fill="#0B0B0B" opacity="1.000000" stroke="none" 
	d="
M424.154968,384.103546 
	C423.958466,384.318359 423.761963,384.533173 423.565491,384.747955 
	C423.608795,384.506653 423.652130,384.265350 423.858948,383.998077 
	C424.022400,383.972107 424.154938,384.103546 424.154968,384.103546 
z"/>
<path fill="#0A0A0A" opacity="1.000000" stroke="none" 
	d="
M85.023293,125.865295 
	C85.278191,126.179970 85.533081,126.494644 85.787979,126.809326 
	C85.498528,126.666733 85.209076,126.524139 84.928703,126.162346 
	C84.937782,125.943138 85.023293,125.865295 85.023293,125.865295 
z"/>
<path fill="#0B0B0B" opacity="1.000000" stroke="none" 
	d="
M416.004852,386.821899 
	C416.267822,387.149963 416.530762,387.478027 416.793701,387.806122 
	C416.492188,387.660797 416.190674,387.515503 415.902832,387.144775 
	C415.916534,386.919342 416.004852,386.821899 416.004852,386.821899 
z"/>
<path fill="#0B0B0B" opacity="1.000000" stroke="none" 
	d="
M399.514282,374.006165 
	C399.491028,374.012787 399.537537,373.999542 399.514282,374.006165 
z"/>
<path fill="#0B0B0B" opacity="1.000000" stroke="none" 
	d="
M404.473083,378.018616 
	C404.475067,378.000366 404.471069,378.036865 404.473083,378.018616 
z"/>
<path fill="#0B0B0B" opacity="1.000000" stroke="none" 
	d="
M410.089142,381.851196 
	C410.157745,381.952454 410.226379,382.053680 410.295013,382.154907 
	C410.163666,382.184814 410.032288,382.214691 409.936279,382.099335 
	C409.971619,381.954102 410.089142,381.851196 410.089142,381.851196 
z"/>
<path fill="#0B0B0B" opacity="1.000000" stroke="none" 
	d="
M421.916626,387.453064 
	C421.958527,387.401611 422.104340,387.587097 422.104340,387.587097 
	C422.104340,387.587097 421.874756,387.504486 421.916626,387.453064 
z"/>
<path fill="#0A0A0A" opacity="1.000000" stroke="none" 
	d="
M78.544678,120.954697 
	C78.580658,120.983986 78.508698,120.925400 78.544678,120.954697 
z"/>
<path fill="#0A0A0A" opacity="1.000000" stroke="none" 
	d="
M76.193436,117.133911 
	C76.193436,117.133911 75.817741,117.409012 75.817741,117.409012 
	C75.817741,117.409012 75.764214,116.970154 75.895157,116.970551 
	C76.026093,116.970940 76.193436,117.133911 76.193436,117.133911 
z"/>
<path fill="#0A0A0A" opacity="1.000000" stroke="none" 
	d="
M416.990662,111.501770 
	C416.982544,111.474365 416.998749,111.529167 416.990662,111.501770 
z"/>
<path fill="#090909" opacity="1.000000" stroke="none" 
	d="
M428.495483,387.511230 
	C428.483093,387.481293 428.507874,387.541199 428.495483,387.511230 
z"/>
<path fill="#0B0B0B" opacity="1.000000" stroke="none" 
	d="
M415.867371,386.962952 
	C415.818176,387.006592 415.704285,386.796936 415.704285,386.796936 
	C415.704285,386.796936 415.925232,386.720276 415.965027,386.771088 
	C416.004852,386.821899 415.916534,386.919342 415.867371,386.962952 
z"/>
<path fill="#090909" opacity="1.000000" stroke="none" 
	d="
M432.465240,387.464722 
	C432.519684,387.434143 432.410797,387.495270 432.465240,387.464722 
z"/>
<path fill="#0B0B0B" opacity="1.000000" stroke="none" 
	d="
M423.955933,383.906555 
	C423.889465,383.841003 424.188995,384.000641 424.171967,384.052094 
	C424.154938,384.103546 424.022400,383.972107 423.955933,383.906555 
z"/>
<path fill="#090909" opacity="1.000000" stroke="none" 
	d="
M434.469666,389.529114 
	C434.442780,389.479370 434.496582,389.578857 434.469666,389.529114 
z"/>
<path fill="#0A0A0A" opacity="1.000000" stroke="none" 
	d="
M411.483154,100.487198 
	C411.519470,100.470192 411.446838,100.504204 411.483154,100.487198 
z"/>
<path fill="#0B0B0B" opacity="1.000000" stroke="none" 
	d="
M422.503479,381.490784 
	C422.484161,381.495636 422.522827,381.485931 422.503479,381.490784 
z"/>
<path fill="#0B0B0B" opacity="1.000000" stroke="none" 
	d="
M409.912445,382.005066 
	C409.853271,382.056000 409.997040,381.816315 410.043091,381.833740 
	C410.089142,381.851196 409.971619,381.954102 409.912445,382.005066 
z"/>
<path fill="#0B0B0B" opacity="1.000000" stroke="none" 
	d="
M420.464539,379.532104 
	C420.434082,379.477905 420.494995,379.586334 420.464539,379.532104 
z"/>
<path fill="#0B0B0B" opacity="1.000000" stroke="none" 
	d="
M404.992676,367.163055 
	C404.992676,367.163055 404.848022,366.943573 404.848022,366.943573 
	C404.848022,366.943573 405.085358,366.882782 405.082886,366.981323 
	C405.080383,367.079865 404.992676,367.163055 404.992676,367.163055 
z"/>
<path fill="#0A0A0A" opacity="1.000000" stroke="none" 
	d="
M410.495911,102.509369 
	C410.515350,102.504440 410.476471,102.514305 410.495911,102.509369 
z"/>
<path fill="#0B0B0B" opacity="1.000000" stroke="none" 
	d="
M405.125366,367.039490 
	C405.170380,366.999146 405.066559,367.254364 405.029602,367.208710 
	C404.992676,367.163055 405.080383,367.079865 405.125366,367.039490 
z"/>
<path fill="#0A0A0A" opacity="1.000000" stroke="none" 
	d="
M401.135895,112.985214 
	C400.982117,113.261803 400.787659,113.506004 400.361694,113.850891 
	C400.170807,113.983940 400.057220,113.888832 400.007385,113.833786 
	C400.096466,113.499855 400.293640,113.271225 400.796448,113.010010 
	C401.043823,112.927185 401.135895,112.985214 401.135895,112.985214 
z"/>
<path fill="#070707" opacity="1.000000" stroke="none" 
	d="
M74.514755,141.482910 
	C74.532173,141.519806 74.497345,141.445999 74.514755,141.482910 
z"/>
<path fill="#0A0A0A" opacity="1.000000" stroke="none" 
	d="
M102.469116,133.477570 
	C102.524696,133.446640 102.413528,133.508484 102.469116,133.477570 
z"/>
<path fill="#0A0A0A" opacity="1.000000" stroke="none" 
	d="
M411.920898,112.081879 
	C411.893402,112.142776 411.736786,111.933235 411.736786,111.933235 
	C411.736786,111.933235 411.930969,111.809906 411.976746,111.859848 
	C412.022552,111.909798 411.948425,112.020988 411.920898,112.081879 
z"/>
<path fill="#0A0A0A" opacity="1.000000" stroke="none" 
	d="
M103.528290,129.532349 
	C103.477356,129.560196 103.579224,129.504501 103.528290,129.532349 
z"/>
<path fill="#0A0A0A" opacity="1.000000" stroke="none" 
	d="
M84.898422,125.985489 
	C84.859062,126.027832 84.712227,125.816376 84.712227,125.816376 
	C84.712227,125.816376 84.941475,125.748329 84.982384,125.806808 
	C85.023293,125.865295 84.937782,125.943138 84.898422,125.985489 
z"/>
<path fill="#0A0A0A" opacity="1.000000" stroke="none" 
	d="
M82.506439,123.504349 
	C82.481247,123.513626 82.531624,123.495064 82.506439,123.504349 
z"/>
<path fill="#0A0A0A" opacity="1.000000" stroke="none" 
	d="
M80.519981,122.532913 
	C80.465073,122.562683 80.574890,122.503151 80.519981,122.532913 
z"/>
<path fill="#0A0A0A" opacity="1.000000" stroke="none" 
	d="
M92.501617,121.485573 
	C92.484924,121.488037 92.518318,121.483109 92.501617,121.485573 
z"/>
<path fill="#0A0A0A" opacity="1.000000" stroke="none" 
	d="
M91.535294,119.542587 
	C91.476250,119.577065 91.594345,119.508102 91.535294,119.542587 
z"/>
<path fill="#0A0A0A" opacity="1.000000" stroke="none" 
	d="
M75.943375,116.888474 
	C76.069626,116.569588 76.295288,116.350349 76.780182,116.056427 
	C77.022728,115.964546 77.129768,116.069977 77.129768,116.069977 
	C76.953133,116.332977 76.754158,116.577820 76.363144,116.969208 
	C76.193436,117.133911 76.026093,116.970940 75.943375,116.888474 
z"/>
<path fill="#0A0A0A" opacity="1.000000" stroke="none" 
	d="
M76.968033,115.913063 
	C76.913330,115.861580 77.164131,115.988342 77.146950,116.029160 
	C77.129768,116.069977 77.022728,115.964546 76.968033,115.913063 
z"/>
<path fill="#0A0A0A" opacity="1.000000" stroke="none" 
	d="
M400.997253,112.899017 
	C400.950714,112.870842 401.211609,112.913422 401.173767,112.949318 
	C401.135895,112.985214 401.043823,112.927185 400.997253,112.899017 
z"/>
</svg>